<svg width="36" height="36" viewBox="0 0 36 36" fill="none" xmlns="http://www.w3.org/2000/svg">
<g id="Img" clip-path="url(#clip0_1_394)">
<path id="Vector" d="M18.4205 33.1867C18.2176 33.1887 18.0178 33.1364 17.8419 33.0351C17.6661 32.9338 17.5206 32.7873 17.4205 32.6107L15.6085 30.0857C15.5555 29.9987 15.5085 29.9697 15.4525 29.9697H11.4205C10.2271 29.9697 9.08247 29.4956 8.23855 28.6517C7.39464 27.8077 6.92053 26.6631 6.92053 25.4697V11.4877C6.92053 10.2942 7.39464 9.1496 8.23855 8.30569C9.08247 7.46178 10.2271 6.98767 11.4205 6.98767H25.4205C26.614 6.98767 27.7586 7.46178 28.6025 8.30569C29.4464 9.1496 29.9205 10.2942 29.9205 11.4877V25.4697C29.9205 26.6631 29.4464 27.8077 28.6025 28.6517C27.7586 29.4956 26.614 29.9697 25.4205 29.9697H21.3845C21.3584 29.9696 21.3328 29.9764 21.3101 29.9894C21.2875 30.0024 21.2687 30.0211 21.2555 30.0437L19.3885 32.6527C19.2881 32.8186 19.1458 32.9553 18.9759 33.049C18.806 33.1427 18.6145 33.1902 18.4205 33.1867ZM11.4205 7.96967C10.4907 7.97469 9.60066 8.34752 8.94485 9.0067C8.28904 9.66588 7.92078 10.5578 7.92053 11.4877V25.4697C7.92053 26.3979 8.28928 27.2882 8.94566 27.9445C9.60204 28.6009 10.4923 28.9697 11.4205 28.9697H15.4565C15.6592 28.9692 15.8583 29.0221 16.0339 29.1233C16.2095 29.2244 16.3553 29.3701 16.4565 29.5457L18.2645 32.0697C18.3925 32.2827 18.4755 32.2397 18.5485 32.1117L20.4165 29.5017C20.5185 29.3372 20.6612 29.2019 20.8307 29.1087C21.0003 29.0155 21.1911 28.9676 21.3845 28.9697H25.4205C26.3488 28.9697 27.239 28.6009 27.8954 27.9445C28.5518 27.2882 28.9205 26.3979 28.9205 25.4697V11.4877C28.9203 10.5578 28.552 9.66588 27.8962 9.0067C27.2404 8.34752 26.3504 7.97469 25.4205 7.96967H11.4205Z" fill="black"/>
<path id="Vector_2" d="M22.2705 15.6047C21.9434 15.8126 21.6735 16.099 21.4852 16.4378C21.297 16.7766 21.1963 17.1571 21.1925 17.5447C21.1904 17.9819 21.3178 18.41 21.5586 18.775C21.7993 19.14 22.1427 19.4255 22.5455 19.5957C22.3982 20.1129 22.1639 20.6012 21.8525 21.0397C21.4235 21.6567 20.9525 22.2857 20.2685 22.2857C19.5845 22.2857 19.4105 21.8777 18.6075 21.8777C17.8375 21.8777 17.5625 22.2967 16.9355 22.2967C16.3085 22.2967 15.8575 21.7237 15.3515 21.0067C14.6873 20.0087 14.321 18.8422 14.2955 17.6437C14.2539 17.2766 14.2874 16.905 14.3941 16.5513C14.5009 16.1977 14.6786 15.8695 14.9164 15.5868C15.1541 15.3041 15.447 15.0728 15.7772 14.907C16.1073 14.7413 16.4678 14.6445 16.8365 14.6227C17.5185 14.6227 18.0685 15.0637 18.4865 15.0637C18.9045 15.0637 19.5095 14.6007 20.2685 14.6007C20.6594 14.5881 21.0473 14.6733 21.3969 14.8486C21.7466 15.024 22.0469 15.2838 22.2705 15.6047ZM18.5415 14.4907C18.4865 14.4907 18.4415 14.4797 18.3985 14.4797C18.3985 14.4467 18.3875 14.3697 18.3875 14.2927C18.4136 13.7832 18.6114 13.2975 18.9485 12.9147C19.3218 12.4709 19.8558 12.1933 20.4335 12.1427C20.4434 12.2089 20.4471 12.2758 20.4445 12.3427C20.4331 12.8615 20.2486 13.3616 19.9205 13.7637C19.7523 13.9725 19.5433 14.1446 19.3061 14.2696C19.069 14.3947 18.8088 14.4699 18.5415 14.4907Z" fill="black"/>
</g>
<defs>
<clipPath id="clip0_1_394">
<rect width="35" height="35" fill="white" transform="translate(0.920532 0.969727)"/>
</clipPath>
</defs>
</svg>
