<svg width="5" height="8" viewBox="0 0 5 8" fill="none" xmlns="http://www.w3.org/2000/svg">
<path id="Vector" d="M1.32301 7.61169C1.18179 7.61169 1.06108 7.56272 0.960859 7.46478C0.860641 7.36684 0.810532 7.24727 0.810532 7.10605C0.810532 6.96483 0.862918 6.84184 0.967692 6.73706L3.72824 3.98335L0.967692 1.22963C0.862918 1.12486 0.810532 1.00186 0.810532 0.860647C0.810532 0.71943 0.860641 0.599852 0.960859 0.501912C1.06108 0.403971 1.18179 0.355001 1.32301 0.355001C1.45512 0.355001 1.57355 0.402833 1.67833 0.498495L4.7942 3.6007C4.90353 3.70092 4.95819 3.82847 4.95819 3.98335C4.95819 4.12912 4.90353 4.25667 4.7942 4.366L1.67833 7.4682C1.58267 7.56386 1.46423 7.61169 1.32301 7.61169Z" fill="#0066CC"/>
</svg>
