<svg width="14" height="15" viewBox="0 0 14 15" fill="none" xmlns="http://www.w3.org/2000/svg">
<path id="Vector" d="M11.634 2.998H10.6135C10.5041 2.18699 10.1078 1.44201 9.49631 0.898097C8.88485 0.354188 8.09876 0.0473512 7.28052 0.0332031C6.46228 0.0473512 5.67618 0.354188 5.06473 0.898097C4.45327 1.44201 4.05692 2.18699 3.94752 2.998H2.92752C2.36631 2.99837 1.82817 3.22142 1.43126 3.61818C1.03435 4.01495 0.811099 4.55299 0.810516 5.1142V12.8297C0.811019 13.3908 1.03412 13.9289 1.43086 14.3257C1.8276 14.7225 2.36557 14.9458 2.92672 14.9464H11.6337C12.195 14.9459 12.7331 14.7228 13.13 14.3259C13.5268 13.9291 13.75 13.391 13.7505 12.8297V5.1142C13.7499 4.55308 13.5267 4.01511 13.1299 3.61836C12.7331 3.22161 12.1951 2.99851 11.634 2.998ZM7.28052 1.1328C7.80793 1.14427 8.31563 1.33537 8.7197 1.67452C9.12377 2.01368 9.39999 2.48056 9.50272 2.998H5.05832C5.16104 2.48056 5.43727 2.01368 5.84133 1.67452C6.2454 1.33537 6.75311 1.14427 7.28052 1.1328ZM12.6505 12.8297C12.6502 13.0993 12.543 13.3577 12.3525 13.5484C12.1619 13.7391 11.9035 13.8464 11.6339 13.8468H2.92702C2.65746 13.8464 2.39908 13.739 2.20853 13.5484C2.01798 13.3577 1.91081 13.0993 1.91052 12.8297V5.1142C1.91083 4.84468 2.01804 4.58629 2.20862 4.39571C2.3992 4.20513 2.65759 4.09792 2.92712 4.0976H11.6341C11.9036 4.09797 12.1619 4.2052 12.3525 4.39578C12.543 4.58635 12.6502 4.84472 12.6505 5.1142V12.8297Z" fill="black" fill-opacity="0.8"/>
</svg>
