<svg width="18" height="17" viewBox="0 0 18 17" fill="none" xmlns="http://www.w3.org/2000/svg">
<rect width="17.2775" height="16.94" rx="8.47" fill="white"/>
<path d="M12.0457 7.04732C11.7535 7.22623 11.5115 7.47636 11.3422 7.77429C11.173 8.07222 11.0821 8.40822 11.0781 8.75084C11.0793 9.13646 11.1935 9.51327 11.4067 9.83459C11.6199 10.1559 11.9226 10.4076 12.2775 10.5586C12.1376 11.01 11.9305 11.4378 11.6633 11.8275C11.2809 12.378 10.8811 12.9284 10.2727 12.9284C9.66434 12.9284 9.50787 12.5749 8.80677 12.5749C8.12306 12.5749 7.87969 12.94 7.32344 12.94C6.7672 12.94 6.37903 12.4301 5.93286 11.8043C5.34349 10.9277 5.01958 9.89966 5 8.84352C5 7.10527 6.12988 6.18403 7.24232 6.18403C7.83335 6.18403 8.32587 6.5722 8.6967 6.5722C9.05014 6.5722 9.60061 6.16081 10.2727 6.16081C10.6183 6.15189 10.9607 6.22808 11.2699 6.38268C11.5791 6.53727 11.8455 6.76552 12.0457 7.04732ZM9.95404 5.42498C10.2503 5.07645 10.418 4.63682 10.4292 4.17952C10.4297 4.11924 10.4238 4.05907 10.4118 4C9.90286 4.04971 9.43225 4.29227 9.09648 4.67793C8.79735 5.01257 8.62332 5.44046 8.60396 5.88888C8.60419 5.94342 8.61001 5.99778 8.62135 6.05113C8.66147 6.05871 8.70221 6.0626 8.74304 6.06274C8.97758 6.04408 9.20588 5.97792 9.41407 5.86828C9.62225 5.75864 9.80596 5.60782 9.95404 5.42498Z" fill="black" fill-opacity="0.8"/>
</svg>
