<svg width="14" height="17" viewBox="0 0 14 17" fill="none" xmlns="http://www.w3.org/2000/svg">
<path id="Vector" d="M13.3534 5.6522C12.8325 5.9711 12.401 6.41695 12.0994 6.94801C11.7977 7.47907 11.6358 8.07798 11.6286 8.6887C11.6307 9.37605 11.8343 10.0477 12.2143 10.6205C12.5943 11.1932 13.134 11.6419 13.7665 11.911C13.5171 12.7156 13.148 13.4781 12.6717 14.1728C11.9901 15.154 11.2774 16.1351 10.193 16.1351C9.1086 16.1351 8.82969 15.5051 7.57999 15.5051C6.36129 15.5051 5.92749 16.1558 4.93599 16.1558C3.94449 16.1558 3.25259 15.2469 2.45729 14.1315C1.40676 12.5689 0.829404 10.7364 0.794495 8.8539C0.794495 5.7555 2.80849 4.1134 4.79139 4.1134C5.84489 4.1134 6.72279 4.8053 7.38379 4.8053C8.01379 4.8053 8.995 4.072 10.193 4.072C10.809 4.05611 11.4194 4.19192 11.9705 4.46748C12.5216 4.74304 12.9965 5.14989 13.3534 5.6522ZM9.62499 2.7604C10.1531 2.13916 10.452 1.35553 10.4719 0.540398C10.4728 0.43294 10.4624 0.325686 10.4409 0.220398C9.53375 0.309012 8.6949 0.741373 8.09639 1.4288C7.5632 2.02528 7.253 2.78799 7.21849 3.5873C7.2189 3.68451 7.22928 3.78141 7.24949 3.8765C7.32101 3.89002 7.39361 3.89695 7.46639 3.8972C7.88447 3.86393 8.29141 3.746 8.66249 3.55058C9.03357 3.35515 9.36104 3.08631 9.62499 2.7604Z" fill="black" fill-opacity="0.8"/>
</svg>
