<svg width="15" height="15" viewBox="0 0 15 15" fill="none" xmlns="http://www.w3.org/2000/svg">
<path id="Vector" d="M14.5785 13.1717L10.7085 9.30174C11.4095 8.37274 11.8305 7.22074 11.8305 5.96974C11.8305 2.90974 9.34153 0.419739 6.28053 0.419739C3.22053 0.419739 0.73053 2.90974 0.73053 5.96974C0.73053 9.03074 3.22053 11.5197 6.28053 11.5197C7.53153 11.5197 8.68353 11.0987 9.61253 10.3977L13.4825 14.2677C13.6335 14.4187 13.8325 14.4957 14.0305 14.4957C14.2285 14.4957 14.4265 14.4197 14.5785 14.2677C14.8815 13.9647 14.8815 13.4747 14.5785 13.1717ZM1.83053 5.96974C1.83053 3.51574 3.82753 1.51974 6.28053 1.51974C8.73453 1.51974 10.7305 3.51674 10.7305 5.96974C10.7305 8.42274 8.73453 10.4197 6.28053 10.4197C3.82653 10.4197 1.83053 8.42374 1.83053 5.96974Z" fill="black" fill-opacity="0.8"/>
</svg>
